<?xml version="1.0" encoding="UTF-8"?>
<svg id="Livello_1" xmlns="http://www.w3.org/2000/svg" version="1.1" viewBox="0 0 1031.82 654.72">
  <!-- Generator: Adobe Illustrator 30.5.1, SVG Export Plug-In . SVG Version: 2.1.4 Build 3)  -->
  <defs>
    <style>
      .st0 {
        fill: #232323;
      }

      .st1 {
        fill: none;
      }

      .st2 {
        fill: #ad191c;
      }

      .st3 {
        fill: #cc171c;
      }
    </style>
  </defs>
  <line class="st1" x1="37.28" y1="527.11" x2="37.28" y2="524.49"/>
  <g>
    <path class="st0" d="M0,652.26v-66.39h19.21c19.82,0,35.96,11.49,35.96,33.24s-15,33.15-37.62,33.15H0ZM19.03,642.09c13.24,0,24.21-6.58,24.21-23.24,0-13.77-9.56-22.8-22.89-22.8h-9.12v46.04h7.81Z"/>
    <path class="st0" d="M76.22,652.26v-66.39h11.23v66.39h-11.23Z"/>
    <path class="st0" d="M147.78,626.91v-9.56h28.77c-.26,25.87-16.14,36.48-32.54,36.48-20.08,0-35.87-15.26-35.87-34.47s15.44-34.99,35.69-34.99c16.05,0,25,8.33,25.52,8.86l-5.7,8.42c-.44-.61-7.45-7.1-19.65-7.1-14.47,0-23.94,10.87-23.94,24.91,0,11.75,9.21,24.21,24.03,24.21,11.31,0,19.91-7.1,20.7-16.75h-17.01Z"/>
    <path class="st0" d="M196.02,652.26v-66.39h11.23v66.39h-11.23Z"/>
    <path class="st0" d="M245.31,652.26v-56.13h-19.56v-10.17h50.25v10.17h-19.47v56.13h-11.23Z"/>
    <path class="st0" d="M341.17,652.26l-6.05-12.98h-30.78l-5.96,12.98h-12.54l34.03-69.11,33.85,69.11h-12.54ZM320.91,608.5c-.44-.88-1.05-2.37-1.14-3.16-.18.79-.88,2.19-1.32,3.16l-9.47,20.61h21.49l-9.56-20.61Z"/>
    <path class="st0" d="M369.59,652.17v-66.3h11.23v56.13h27.8v10.17h-39.03Z"/>
    <path class="st0" d="M457.65,652.26v-66.39h14.47c15.7,0,27.8,5.17,27.8,21.22,0,13.33-8.33,22.36-26.22,22.36h-4.82v22.8h-11.23ZM473.43,619.28c9.73,0,14.65-5.17,14.65-12.28s-4.47-10.87-12.89-10.87h-6.31v23.15h4.56Z"/>
    <path class="st0" d="M519.83,652.17v-66.3h11.23v56.13h27.8v10.17h-39.03Z"/>
    <path class="st0" d="M623.94,652.26l-6.05-12.98h-30.78l-5.96,12.98h-12.54l34.03-69.11,33.85,69.11h-12.54ZM603.68,608.5c-.44-.88-1.05-2.37-1.14-3.16-.18.79-.88,2.19-1.32,3.16l-9.47,20.61h21.49l-9.56-20.61Z"/>
    <path class="st0" d="M663.32,610.25l.18,42.01h-11.23l.09-68.23,49.29,45.43-.17-43.59h11.23l-.09,68.85-49.29-44.47Z"/>
    <path class="st0" d="M748.04,610.25l.17,42.01h-11.23l.09-68.23,49.29,45.43-.17-43.59h11.23l-.09,68.85-49.29-44.47Z"/>
    <path class="st0" d="M821.8,652.26v-66.39h11.23v66.39h-11.23Z"/>
    <path class="st0" d="M868.46,610.25l.17,42.01h-11.23l.09-68.23,49.29,45.43-.17-43.59h11.23l-.09,68.85-49.29-44.47Z"/>
    <path class="st0" d="M978.09,626.91v-9.56h28.77c-.26,25.87-16.14,36.48-32.54,36.48-20.09,0-35.87-15.26-35.87-34.47s15.43-34.99,35.69-34.99c16.05,0,25,8.33,25.52,8.86l-5.7,8.42c-.44-.61-7.45-7.1-19.64-7.1-14.47,0-23.94,10.87-23.94,24.91,0,11.75,9.21,24.21,24.03,24.21,11.31,0,19.91-7.1,20.7-16.75h-17.02Z"/>
  </g>
  <path class="st0" d="M217.23,316.66s77.24-16.81,99.78-97.54c4.72-16.93,5.32-38.65,4.6-63.04-.52-17.79-2.53-33.72-5.06-47.39-2.34-13.89-7.67-34.8-22.79-54.65C275.13,29.58,241.41,5.1,180.51.1L14.66,0C7.69-.08,1.99,3.65,1.99,12.52v501.34c0,5.02,5.6,10.63,12.52,10.63h58.06c3.71,0,6.72-3.01,6.72-6.72v-201.1h53.29l105.83,198.23c4.99,6.07,7.57,9.59,20.31,9.59h57.79c3.36,0,5.24-3.88,3.15-6.52l-102.41-201.3ZM78.21,246.72V71.88h95.64c18.72,0,37.06,6.21,51.41,18.23.68.57,1.34,1.14,1.99,1.72,13.95,12.45,22.12,30.03,23.73,48.66,1.81,20.91-.66,40.26-2.27,49.82-.76,4.55-1.97,9.01-3.78,13.25-.36.85-.74,1.68-1.12,2.5-11.77,25.07-37.45,40.66-65.15,40.66h-100.46Z"/>
  <path class="st0" d="M387.31,177.12h55.39c3.85,0,6.97,4.01,6.97,8.96v329.45c0,4.95-3.12,8.96-6.97,8.96h-55.39c-3.85,0-6.97-4.01-6.97-8.96V186.07c0-4.95,3.12-8.96,6.97-8.96Z"/>
  <rect class="st0" x="380.34" y="0" width="69.32" height="81.72" rx="17.82" ry="17.82"/>
  <path class="st2" d="M577.51,8.84v345.39l-69.94,37.65V8.84C507.57,3.95,511.22,0,515.71,0h53.66c4.49,0,8.14,3.95,8.14,8.84Z"/>
  <path class="st3" d="M577.51,206.98v309.36c0,4.5-3.64,8.14-8.14,8.14h-53.66c-4.5,0-8.14-3.64-8.14-8.14v-240.39l69.94-68.97Z"/>
  <path class="st3" d="M833.62,0C768.29,0,710.33,32.48,674.24,82.58c-24.41,33.83-38.84,75.72-38.84,121.05,0,112.47,88.74,203.63,198.21,203.63,26.68,0,52.11-5.42,75.34-15.23,72.09-30.47,122.86-103.34,122.86-188.41C1031.82,91.18,943.07,0,833.62,0ZM868.17,338.26c-11.04,3-22.6,4.59-34.55,4.59-74.84,0-135.5-62.33-135.5-139.21,0-24.42,6.11-47.37,16.87-67.32,23.1-42.86,67.57-71.89,118.63-71.89,74.83,0,135.48,62.33,135.48,139.21,0,64.62-42.85,118.95-100.94,134.62Z"/>
  <path class="st3" d="M991.52,454.64h-313.29c-7.39,0-13.59,5.04-15.36,11.86v.02h0c-.31,1.28-.5,2.6-.5,3.98v38.14c0,8.75,7.09,15.84,15.86,15.84h313.29c4.85,0,9.21-2.19,12.13-5.63,2.32-2.75,3.73-6.31,3.73-10.21v-38.14c0-8.75-7.11-15.86-15.86-15.86Z"/>
</svg>